<?xml version="1.0" encoding="UTF-8"?>
<svg width="800" height="800" viewBox="0 0 800 800" xmlns="http://www.w3.org/2000/svg">
  <!-- 定义箭头标记，调整了参考点 -->
  <defs>
    <marker id="arrow1" markerWidth="12" markerHeight="12" refX="8" refY="6" orient="auto" markerUnits="strokeWidth">
      <path d="M0,0 L0,12 L8,6 z" fill="#808080" />
    </marker>
    <marker id="arrow2" markerWidth="10" markerHeight="10" refX="6" refY="5" orient="auto" markerUnits="strokeWidth">
      <path d="M0,0 L0,10 L6,5 z" fill="#808080" />
    </marker>
    <marker id="arrow3" markerWidth="8" markerHeight="8" refX="5" refY="4" orient="auto" markerUnits="strokeWidth">
      <path d="M0,0 L0,8 L5,4 z" fill="#808080" />
    </marker>
  </defs>

  <!-- 辅助同心圆及标注 -->
  <circle cx="400" cy="400" r="120" fill="none" stroke="black" stroke-dasharray="4,4" />
  <circle cx="400" cy="400" r="240" fill="none" stroke="black" stroke-dasharray="4,4" />
  <circle cx="400" cy="400" r="360" fill="none" stroke="black" stroke-dasharray="4,4" />
  <text x="400" y="270" text-anchor="middle" font-size="14" fill="black">1-hop</text>
  <text x="400" y="150" text-anchor="middle" font-size="14" fill="black">2-hop</text>
  <text x="400" y="30" text-anchor="middle" font-size="14" fill="black">3-hop</text>

  <!-- 节点（位置与大小固定） -->
  <!-- 中心节点（半径 12） -->
  <circle id="center" cx="400" cy="400" r="12" fill="#000000" />
  <!-- 1-hop 节点（半径 9.5） -->
  <circle id="n1a" cx="400" cy="280" r="9.5" fill="#555555" stroke="black" stroke-width="1"/>
  <circle id="n1b" cx="296.1" cy="460" r="9.5" fill="#555555" stroke="black" stroke-width="1"/>
  <circle id="n1c" cx="503.9" cy="460" r="9.5" fill="#555555" stroke="black" stroke-width="1"/>
  <!-- 2-hop 节点（半径 7.7） -->
  <circle id="n2a" cx="338" cy="168" r="7.7" fill="#999999" stroke="black" stroke-width="1"/>
  <circle id="n2b" cx="462" cy="168" r="7.7" fill="#999999" stroke="black" stroke-width="1"/>
  <circle id="n2c" cx="230" cy="570" r="7.7" fill="#999999" stroke="black" stroke-width="1"/>
  <circle id="n2d" cx="168" cy="462" r="7.7" fill="#999999" stroke="black" stroke-width="1"/>
  <circle id="n2e" cx="632" cy="462" r="7.7" fill="#999999" stroke="black" stroke-width="1"/>
  <circle id="n2f" cx="570" cy="570" r="7.7" fill="#999999" stroke="black" stroke-width="1"/>
  <!-- 3-hop 节点（半径 6） -->
  <circle id="n3a" cx="248" cy="74" r="6" fill="#dddddd" stroke="black" stroke-width="1"/>
  <circle id="n3b" cx="369" cy="41" r="6" fill="#dddddd" stroke="black" stroke-width="1"/>
  <circle id="n3c" cx="431" cy="41" r="6" fill="#dddddd" stroke="black" stroke-width="1"/>
  <circle id="n3d" cx="552" cy="74" r="6" fill="#dddddd" stroke="black" stroke-width="1"/>
  <circle id="n3e" cx="194" cy="695" r="6" fill="#dddddd" stroke="black" stroke-width="1"/>
  <circle id="n3f" cx="105" cy="607" r="6" fill="#dddddd" stroke="black" stroke-width="1"/>
  <circle id="n3g" cx="74" cy="552" r="6" fill="#dddddd" stroke="black" stroke-width="1"/>
  <circle id="n3h" cx="41" cy="431" r="6" fill="#dddddd" stroke="black" stroke-width="1"/>
  <circle id="n3i" cx="759" cy="431" r="6" fill="#dddddd" stroke="black" stroke-width="1"/>
  <circle id="n3j" cx="726" cy="552" r="6" fill="#dddddd" stroke="black" stroke-width="1"/>
  <circle id="n3k" cx="695" cy="607" r="6" fill="#dddddd" stroke="black" stroke-width="1"/>
  <circle id="n3l" cx="607" cy="695" r="6" fill="#dddddd" stroke="black" stroke-width="1"/>

  <!-- 边（终点均为目标节点边缘） -->
  <!-- 1-hop 边：目标为中心节点（半径 12） -->
  <line x1="400" y1="280" x2="400" y2="388" stroke="#808080" stroke-width="3" marker-end="url(#arrow1)"/>
  <line x1="296.1" y1="460" x2="389.61" y2="406" stroke="#808080" stroke-width="3" marker-end="url(#arrow1)"/>
  <line x1="503.9" y1="460" x2="410.39" y2="406" stroke="#808080" stroke-width="3" marker-end="url(#arrow1)"/>

  <!-- 2-hop 边：目标为对应 1-hop 节点（半径 9.5） -->
  <line x1="338" y1="168" x2="395.40" y2="271.69" stroke="#808080" stroke-width="2" marker-end="url(#arrow2)"/>
  <line x1="462" y1="168" x2="404.60" y2="271.69" stroke="#808080" stroke-width="2" marker-end="url(#arrow2)"/>
  <line x1="230" y1="570" x2="291.20" y2="468.14" stroke="#808080" stroke-width="2" marker-end="url(#arrow2)"/>
  <line x1="168" y1="462" x2="286.60" y2="460.15" stroke="#808080" stroke-width="2" marker-end="url(#arrow2)"/>
  <line x1="632" y1="462" x2="513.40" y2="460.15" stroke="#808080" stroke-width="2" marker-end="url(#arrow2)"/>
  <line x1="570" y1="570" x2="508.80" y2="468.14" stroke="#808080" stroke-width="2" marker-end="url(#arrow2)"/>

  <!-- 3-hop 边：目标为对应 2-hop 节点（半径 7.7） -->
  <line x1="248" y1="74" x2="332.68" y2="162.44" stroke="#808080" stroke-width="1" marker-end="url(#arrow3)"/>
  <line x1="369" y1="41" x2="339.83" y2="160.52" stroke="#808080" stroke-width="1" marker-end="url(#arrow3)"/>
  <line x1="431" y1="41" x2="460.17" y2="160.52" stroke="#808080" stroke-width="1" marker-end="url(#arrow3)"/>
  <line x1="552" y1="74" x2="467.32" y2="162.44" stroke="#808080" stroke-width="1" marker-end="url(#arrow3)"/>
  <line x1="194" y1="695" x2="227.87" y2="577.40" stroke="#808080" stroke-width="1" marker-end="url(#arrow3)"/>
  <line x1="105" y1="607" x2="222.62" y2="572.18" stroke="#808080" stroke-width="1" marker-end="url(#arrow3)"/>
  <line x1="74" y1="552" x2="162.44" y2="467.32" stroke="#808080" stroke-width="1" marker-end="url(#arrow3)"/>
  <line x1="41" y1="431" x2="160.52" y2="460.17" stroke="#808080" stroke-width="1" marker-end="url(#arrow3)"/>
  <line x1="759" y1="431" x2="639.48" y2="460.17" stroke="#808080" stroke-width="1" marker-end="url(#arrow3)"/>
  <line x1="726" y1="552" x2="637.56" y2="467.32" stroke="#808080" stroke-width="1" marker-end="url(#arrow3)"/>
  <line x1="695" y1="607" x2="577.38" y2="572.19" stroke="#808080" stroke-width="1" marker-end="url(#arrow3)"/>
  <line x1="607" y1="695" x2="572.19" y2="577.38" stroke="#808080" stroke-width="1" marker-end="url(#arrow3)"/>
</svg>